<svg fill="none" height="16" viewBox="0 0 16 16" width="16" xmlns="http://www.w3.org/2000/svg">
	<path
		d="M12.9019 5.76665L12.131 5.4837L11.8895 4.42848C11.8512 4.25944 11.78 4.09962 11.6798 3.95818C11.5796 3.81674 11.4525 3.69645 11.3058 3.60421C11.1591 3.51198 10.9956 3.4496 10.8247 3.42066C10.6538 3.39172 10.4789 3.39678 10.3099 3.43556L8.31631 3.89632C8.30333 3.92358 8.29295 3.95084 8.27997 3.9768L7.631 5.22282L10.5643 4.54789C10.5781 4.54634 10.5921 4.54634 10.6059 4.54789C10.6464 4.54833 10.6856 4.56239 10.7171 4.58782C10.7487 4.61325 10.7708 4.64856 10.7798 4.68807L12.1245 10.5755C12.1355 10.6213 12.128 10.6695 12.1037 10.7099C12.0795 10.7502 12.0403 10.7793 11.9947 10.791L4.28491 12.5432C4.27111 12.5447 4.25718 12.5447 4.24338 12.5432C4.20423 12.5434 4.16609 12.5308 4.13472 12.5074C4.10334 12.484 4.08044 12.451 4.06945 12.4134L3.87087 11.536C3.559 11.7949 3.21896 12.0178 2.85718 12.2005L2.95323 12.673C2.9922 12.8421 3.06421 13.0019 3.16512 13.1431C3.26603 13.2843 3.39385 13.4042 3.54124 13.4959C3.68862 13.5875 3.85267 13.6492 4.02395 13.6772C4.19523 13.7053 4.37037 13.6993 4.53931 13.6594L7.41294 13.004L9.91667 13.9203C10.2438 14.0395 10.6047 14.0245 10.9208 13.8786C11.2369 13.7328 11.4825 13.4678 11.604 13.1415L12.0388 11.9474L12.2374 11.902C12.4063 11.8636 12.5661 11.7922 12.7074 11.692C12.8488 11.5918 12.969 11.4647 13.0612 11.318C13.1534 11.1713 13.2158 11.0079 13.2448 10.837C13.2738 10.6662 13.2689 10.4913 13.2303 10.3224L13.0019 9.31911L13.6872 7.45917C13.7468 7.29648 13.7738 7.12363 13.7667 6.9505C13.7595 6.77737 13.7182 6.60736 13.6453 6.45017C13.5724 6.29299 13.4692 6.15172 13.3416 6.03443C13.2141 5.91715 13.0647 5.82616 12.9019 5.76665Z"
		fill="#A1887F"/>
	<path
		d="M4.39911 9.46445L7.47263 3.55753C7.554 3.40215 7.59581 3.22911 7.59436 3.05372C7.59291 2.87833 7.54824 2.706 7.4643 2.55199C7.38037 2.39798 7.25976 2.26704 7.11315 2.17076C6.96654 2.07448 6.79846 2.01583 6.62378 2C6.59133 2 6.56018 2 6.52773 2C6.33261 1.99983 6.14118 2.05324 5.97433 2.1544C5.80748 2.25557 5.67161 2.4006 5.58153 2.57369L5.21811 3.27198L4.67168 2.98773C4.56825 2.93356 4.45514 2.90033 4.33885 2.88993C4.22255 2.87954 4.10535 2.89218 3.99395 2.92714C3.88255 2.96211 3.77914 3.0187 3.68964 3.09369C3.60014 3.16867 3.52631 3.26058 3.47238 3.36413L2.24324 5.73677C2.20886 5.8013 2.19101 5.87334 2.19127 5.94645C2.19154 6.01956 2.20991 6.09147 2.24475 6.15575C2.27959 6.22003 2.32981 6.27468 2.39092 6.31481C2.45204 6.35494 2.52215 6.37931 2.59498 6.38574H2.63521C2.71573 6.38524 2.79457 6.36272 2.86321 6.32062C2.93184 6.27853 2.98765 6.21846 3.02459 6.14691L4.26023 3.77298L4.80666 4.05723L2.50931 8.47931C2.07514 9.30962 1.91261 10.2553 2.04465 11.1829C2.05412 11.2462 2.08511 11.3042 2.13241 11.3472C2.1797 11.3903 2.24039 11.4157 2.30424 11.4191H2.3289C2.37395 11.4199 2.41851 11.4097 2.45869 11.3893C3.29044 10.9658 3.96892 10.2928 4.39911 9.46445Z"
		fill="#90A4AE"/>
	<path
		d="M9.6078 8.35991L9.49098 7.84982C9.47335 7.7731 9.426 7.7065 9.35933 7.66465C9.29266 7.6228 9.2121 7.6091 9.13535 7.62657L8.24366 7.83165L8.03859 6.94126C8.02096 6.86454 7.97361 6.79795 7.90694 6.75609C7.84026 6.71424 7.75971 6.70054 7.68295 6.71801L7.17286 6.83483C7.09614 6.85246 7.02955 6.89981 6.98769 6.96648C6.94584 7.03315 6.93215 7.11371 6.94962 7.19046L7.15469 8.08085L6.26301 8.28592C6.18629 8.30356 6.11969 8.3509 6.07784 8.41758C6.03599 8.48425 6.02229 8.5648 6.03976 8.64156L6.15658 9.15165C6.17421 9.22837 6.22155 9.29496 6.28823 9.33682C6.3549 9.37867 6.43545 9.39236 6.51221 9.37489L7.40519 9.16852L7.61027 10.0589C7.6279 10.1356 7.67525 10.2022 7.74192 10.2441C7.80859 10.2859 7.88914 10.2996 7.9659 10.2822L8.47599 10.1653C8.55106 10.1477 8.61632 10.1015 8.65798 10.0366C8.69963 9.97166 8.71443 9.89311 8.69924 9.81749L8.49416 8.92711L9.38585 8.72203C9.42441 8.7132 9.46082 8.69677 9.49294 8.67369C9.52507 8.65061 9.55226 8.62135 9.57294 8.58762C9.59361 8.55389 9.60734 8.51638 9.61332 8.47728C9.61931 8.43818 9.61743 8.39827 9.6078 8.35991Z"
		fill="#E57373"/>
</svg>
