<svg fill="none" height="16" viewBox="0 0 16 16" width="16" xmlns="http://www.w3.org/2000/svg">
	<path
		d="M11.4775 3.13812H10.2025V4.24468H11.4775C11.5442 4.245 11.6081 4.27166 11.6553 4.31886C11.7025 4.36606 11.7292 4.42998 11.7295 4.49673V12.3902C11.7292 12.4569 11.7025 12.5208 11.6553 12.568C11.6081 12.6152 11.5442 12.6419 11.4775 12.6422H4.35861C4.29207 12.6419 4.22833 12.6154 4.18117 12.5685C4.134 12.5215 4.1072 12.4579 4.10656 12.3914V4.49673C4.10688 4.42998 4.13354 4.36606 4.18074 4.31886C4.22794 4.27166 4.29186 4.245 4.35861 4.24468H5.87828V3.13812H4.35861C3.99848 3.13877 3.65329 3.28212 3.39864 3.53677C3.144 3.79141 3.00065 4.1366 3 4.49673V12.3902C3.00032 12.7505 3.14353 13.096 3.39821 13.3509C3.65289 13.6058 3.99827 13.7494 4.35861 13.75H11.4775C11.8376 13.7494 12.1828 13.606 12.4374 13.3514C12.6921 13.0967 12.8354 12.7515 12.8361 12.3914V4.49673C12.8354 4.1366 12.6921 3.79141 12.4374 3.53677C12.1828 3.28212 11.8376 3.13877 11.4775 3.13812Z"
		fill="#A1887F"/>
	<path
		d="M8.04103 1.75C7.72864 1.75 7.42904 1.8741 7.20815 2.09499C6.98726 2.31588 6.86316 2.61548 6.86316 2.92787V4.24713H9.21889V2.92787C9.21889 2.61548 9.0948 2.31588 8.87391 2.09499C8.65301 1.8741 8.35342 1.75 8.04103 1.75Z"
		fill="#90A4AE"/>
	<path
		d="M10.3253 5.74344H8.71838C8.59186 5.74344 8.47052 5.7937 8.38106 5.88316C8.29159 5.97263 8.24133 6.09397 8.24133 6.22049C8.24133 6.34701 8.29159 6.46835 8.38106 6.55781C8.47052 6.64728 8.59186 6.69754 8.71838 6.69754H10.3253C10.4519 6.69754 10.5732 6.64728 10.6627 6.55781C10.7521 6.46835 10.8024 6.34701 10.8024 6.22049C10.8024 6.09397 10.7521 5.97263 10.6627 5.88316C10.5732 5.7937 10.4519 5.74344 10.3253 5.74344Z"
		fill="#90A4AE"/>
	<path
		d="M5.60536 5.71888C5.5651 5.68746 5.51474 5.67187 5.46378 5.67504C5.41281 5.67821 5.36477 5.69993 5.32872 5.7361L5.09019 5.97093C5.05442 6.00957 5.03455 6.06028 5.03455 6.11294C5.03455 6.1656 5.05442 6.21631 5.09019 6.25495L5.91519 7.20782C5.9348 7.22985 5.95885 7.24749 5.98577 7.25957C6.01268 7.27164 6.04184 7.27789 6.07134 7.27789C6.10084 7.27789 6.13 7.27164 6.15692 7.25957C6.18383 7.24749 6.20788 7.22985 6.22749 7.20782L7.56027 5.7447C7.59631 5.70453 7.61531 5.65192 7.61324 5.59799C7.61118 5.54407 7.58821 5.49306 7.54921 5.45577L7.31437 5.22093C7.27677 5.18362 7.2264 5.16197 7.17345 5.16037C7.1205 5.15878 7.06891 5.17734 7.02913 5.21233L6.05536 6.07298L5.60536 5.71888Z"
		fill="#81C784"/>
	<path
		d="M7.54921 7.77211L7.31437 7.53728C7.27677 7.49996 7.2264 7.47832 7.17345 7.47672C7.1205 7.47512 7.06891 7.49369 7.02913 7.52867L6.05536 8.38933L5.6029 8.03523C5.56265 8.00381 5.51228 7.98821 5.46132 7.99138C5.41035 7.99456 5.36231 8.01627 5.32626 8.05244L5.09019 8.28605C5.05442 8.32468 5.03455 8.3754 5.03455 8.42806C5.03455 8.48071 5.05442 8.53143 5.09019 8.57006L5.91519 9.52293C5.9348 9.54497 5.95885 9.56261 5.98577 9.57468C6.01268 9.58676 6.04184 9.593 6.07134 9.593C6.10084 9.593 6.13 9.58676 6.15692 9.57468C6.18383 9.56261 6.20788 9.54497 6.22749 9.52293L7.56027 8.06105C7.59631 8.02088 7.61531 7.96827 7.61324 7.91434C7.61118 7.86041 7.58821 7.80941 7.54921 7.77211Z"
		fill="#81C784"/>
	<path
		d="M10.3253 8.05862H8.71838C8.59186 8.05862 8.47052 8.10888 8.38106 8.19835C8.29159 8.28781 8.24133 8.40915 8.24133 8.53567C8.24133 8.66219 8.29159 8.78353 8.38106 8.873C8.47052 8.96246 8.59186 9.01272 8.71838 9.01272H10.3253C10.4519 9.01272 10.5732 8.96246 10.6627 8.873C10.7521 8.78353 10.8024 8.66219 10.8024 8.53567C10.8024 8.40915 10.7521 8.28781 10.6627 8.19835C10.5732 8.10888 10.4519 8.05862 10.3253 8.05862Z"
		fill="#90A4AE"/>
	<path
		d="M7.31806 9.85368C7.2811 9.81567 7.23107 9.79312 7.17811 9.79061C7.12515 9.7881 7.07321 9.80581 7.03282 9.84015L6.05905 10.7008L5.60659 10.3467C5.56633 10.3153 5.51597 10.2997 5.46501 10.3029C5.41404 10.306 5.366 10.3278 5.32995 10.3639L5.09019 10.6024C5.05442 10.6411 5.03455 10.6918 5.03455 10.7445C5.03455 10.7971 5.05442 10.8478 5.09019 10.8865L5.91519 11.8393C5.9348 11.8614 5.95886 11.879 5.98577 11.8911C6.01268 11.9032 6.04184 11.9094 6.07134 11.9094C6.10084 11.9094 6.13 11.9032 6.15692 11.8911C6.18383 11.879 6.20788 11.8614 6.22749 11.8393L7.56028 10.3762C7.59668 10.336 7.61591 10.2831 7.61384 10.2289C7.61177 10.1747 7.58858 10.1234 7.54921 10.0861L7.31806 9.85368Z"
		fill="#81C784"/>
	<path
		d="M10.3253 10.375H8.71838C8.59186 10.375 8.47052 10.4253 8.38106 10.5147C8.29159 10.6042 8.24133 10.7255 8.24133 10.852C8.24133 10.9786 8.29159 11.0999 8.38106 11.1894C8.47052 11.2788 8.59186 11.3291 8.71838 11.3291H10.3253C10.4519 11.3291 10.5732 11.2788 10.6627 11.1894C10.7521 11.0999 10.8024 10.9786 10.8024 10.852C10.8024 10.7255 10.7521 10.6042 10.6627 10.5147C10.5732 10.4253 10.4519 10.375 10.3253 10.375Z"
		fill="#90A4AE"/>
</svg>
