<svg fill="none" height="16" viewBox="0 0 16 16" width="16" xmlns="http://www.w3.org/2000/svg">
	<path clip-rule="evenodd"
				d="M2 5C2 4.44772 2.44772 4 3 4H13C13.5523 4 14 4.44772 14 5C14 5.55228 13.5523 6 13 6H3C2.44772 6 2 5.55228 2 5ZM6 8C6 7.44772 6.44772 7 7 7H13C13.5523 7 14 7.44772 14 8C14 8.55228 13.5523 9 13 9H7C6.44772 9 6 8.55228 6 8ZM4 11C4 10.4477 4.44772 10 5 10H13C13.5523 10 14 10.4477 14 11C14 11.5523 13.5523 12 13 12H5C4.44772 12 4 11.5523 4 11Z"
				fill="black"
				fill-rule="evenodd"/>
</svg>
