<svg fill="none" height="16" viewBox="0 0 16 16" width="16" xmlns="http://www.w3.org/2000/svg">
	<path
		d="M8.71854 3.17842C8.71854 2.86589 8.59439 2.56615 8.37339 2.34515C8.15239 2.12416 7.85266 2 7.54012 2C7.22758 2 6.92784 2.12416 6.70685 2.34515C6.48585 2.56615 6.36169 2.86589 6.36169 3.17842V4.49762H8.71854V3.17842Z"
		fill="#90A4AE"/>
	<path
		d="M8.17637 8.75887L7.77065 9.56293C7.73202 9.6393 7.67321 9.70362 7.6006 9.74892C7.52799 9.79422 7.44436 9.81877 7.35879 9.81988H5.14579C5.02155 9.81988 4.90241 9.77053 4.81456 9.68269C4.72672 9.59484 4.67737 9.4757 4.67737 9.35147C4.67737 9.22723 4.72672 9.10809 4.81456 9.02024C4.90241 8.9324 5.02155 8.88305 5.14579 8.88305H7.06495L7.90589 7.21346C7.94887 7.12804 8.01697 7.05783 8.10103 7.01224C8.18509 6.96666 8.28108 6.9479 8.37612 6.95847C8.47116 6.96904 8.56068 7.00845 8.63266 7.0714C8.70465 7.13434 8.75564 7.21781 8.7788 7.31059L9.2214 9.07238L9.53122 8.43184C9.56957 8.35261 9.62947 8.28579 9.70406 8.23904C9.77864 8.19228 9.86489 8.1675 9.95292 8.16751L13.0499 8.16997C13.1741 8.16997 13.2933 8.21932 13.3811 8.30716C13.469 8.39501 13.5183 8.51415 13.5183 8.63839C13.5183 8.76262 13.469 8.88176 13.3811 8.96961C13.2933 9.05745 13.1741 9.10681 13.0499 9.10681H10.2468L9.50048 10.6399C9.46213 10.7192 9.40223 10.786 9.32764 10.8327C9.25306 10.8795 9.16681 10.9043 9.07878 10.9043H9.03083C8.9351 10.8945 8.84468 10.8556 8.77187 10.7927C8.69906 10.7298 8.64739 10.6459 8.62389 10.5526L8.17637 8.75887Z"
		fill="#81C784"/>
	<path
		d="M11.9377 3.78686C12.1926 4.04153 12.3361 4.38689 12.3367 4.74721V8H11.229V4.74721C11.2287 4.68046 11.202 4.61655 11.1548 4.56935C11.1076 4.52215 11.0437 4.4955 10.977 4.49517H9.70203V3.38867H10.977C11.3373 3.389 11.6828 3.53219 11.9377 3.78686Z"
		fill="#A1887F"/>
	<path
		d="M5.14579 10.8047C5.02155 10.8047 4.90241 10.854 4.81456 10.9419C4.72672 11.0297 4.67737 11.1488 4.67737 11.2731C4.67737 11.3973 4.72672 11.5165 4.81456 11.6043C4.90241 11.6921 5.02155 11.7415 5.14579 11.7415H7.1129C7.23713 11.7415 7.35628 11.6921 7.44412 11.6043C7.53197 11.5165 7.58132 11.3973 7.58132 11.2731C7.58132 11.1488 7.53197 11.0297 7.44412 10.9419C7.35628 10.854 7.23713 10.8047 7.1129 10.8047H5.14579Z"
		fill="#90A4AE"/>
	<path
		d="M5.91904 6.01721C5.18138 4.88612 3.18476 6.56923 5.91904 8.06055C8.65825 6.57046 6.66409 4.88735 5.91904 6.01721Z"
		fill="#E57373"/>
	<path
		d="M2.5 12.6415C2.50065 13.0018 2.64416 13.3472 2.89906 13.6018C3.15396 13.8565 3.49945 13.9997 3.85977 14H10.977C11.3371 13.9994 11.6823 13.856 11.9369 13.6014C12.1916 13.3468 12.3349 13.0016 12.3356 12.6415V10.0363H11.2291V12.6415C11.2287 12.7082 11.2021 12.7721 11.1549 12.8193C11.1077 12.8665 11.0438 12.8932 10.977 12.8935H3.85977C3.79302 12.8932 3.7291 12.8665 3.68191 12.8193C3.63471 12.7721 3.60805 12.7082 3.60773 12.6415V4.74721C3.60805 4.68046 3.63471 4.61655 3.68191 4.56935C3.7291 4.52215 3.79302 4.4955 3.85977 4.49517H5.37813V3.38867H3.85977C3.49945 3.389 3.15396 3.53219 2.89906 3.78686C2.64416 4.04153 2.50065 4.38689 2.5 4.74721V12.6415Z"
		fill="#A1887F"/>
</svg>
