<svg fill="none" height="16" viewBox="0 0 16 16" width="16" xmlns="http://www.w3.org/2000/svg">
	<path
		d="M4.60373 4.45087C5.26947 4.45087 5.80915 3.90222 5.80915 3.22543C5.80915 2.54865 5.26947 2 4.60373 2C3.938 2 3.39832 2.54865 3.39832 3.22543C3.39832 3.90222 3.938 4.45087 4.60373 4.45087Z"
		fill="#A1887F"/>
	<path
		d="M3.24902 8.89478V13.3852C3.24462 13.5343 3.29515 13.6797 3.39071 13.7929C3.48627 13.9062 3.61998 13.979 3.76563 13.9973C3.84512 14.0051 3.92535 13.996 4.00117 13.9705C4.07699 13.945 4.14673 13.9036 4.20592 13.8491C4.2651 13.7946 4.31242 13.7281 4.34485 13.6539C4.37728 13.5797 4.3941 13.4994 4.39423 13.4182V10.152C4.39321 10.1002 4.41013 10.0496 4.44204 10.0091C4.47395 9.96859 4.51882 9.94077 4.56884 9.93046C4.59866 9.92588 4.6291 9.9279 4.65808 9.93637C4.68707 9.94485 4.71391 9.95959 4.73677 9.97958C4.75964 9.99957 4.77799 10.0243 4.79057 10.0522C4.80316 10.0801 4.80968 10.1104 4.80968 10.141V13.3852C4.80537 13.5349 4.85641 13.6808 4.95271 13.7941C5.04901 13.9074 5.1836 13.9799 5.3299 13.9973C5.4094 14.0051 5.48963 13.996 5.56545 13.9705C5.64127 13.945 5.71101 13.9036 5.77019 13.8491C5.82937 13.7946 5.8767 13.7281 5.90913 13.6539C5.94156 13.5797 5.95837 13.4994 5.9585 13.4182V6.65203L6.5281 7.40981C6.60298 7.50914 6.70902 7.57944 6.82861 7.60906C6.94821 7.63867 7.07418 7.62582 7.1856 7.57263L9.01239 6.69855C9.13534 6.64226 9.23387 6.54233 9.28951 6.41747C9.34516 6.29261 9.35409 6.15141 9.31465 6.02033C9.2906 5.94676 9.25147 5.87921 9.19986 5.82214C9.14824 5.76506 9.08531 5.71976 9.01522 5.68922C8.94512 5.65868 8.86945 5.6436 8.7932 5.64496C8.71695 5.64633 8.64185 5.66411 8.57285 5.69714L7.11816 6.39127L6.18851 5.13278C6.14126 5.06593 6.07958 5.01098 6.00818 4.97214C5.93679 4.93331 5.85759 4.91162 5.77667 4.90875H3.42845C3.18221 4.90875 2.94605 5.0082 2.77194 5.1852C2.59782 5.36221 2.5 5.60229 2.5 5.85262V7.96928C2.50013 8.18785 2.57488 8.3996 2.71148 8.56839C2.84808 8.73718 3.03807 8.85254 3.24902 8.89478Z"
		fill="#A1887F"/>
	<path
		d="M13.1814 8.54953H10.7729C10.7091 8.54953 10.6478 8.57533 10.6026 8.62124C10.5575 8.66716 10.5321 8.72944 10.5321 8.79437V9.30609C10.5321 9.37103 10.5575 9.4333 10.6026 9.47922C10.6478 9.52514 10.7091 9.55093 10.7729 9.55093H13.1814C13.2453 9.55093 13.3065 9.52514 13.3517 9.47922C13.3968 9.4333 13.4222 9.37103 13.4222 9.30609V8.79315C13.4219 8.72842 13.3964 8.66646 13.3513 8.62081C13.3061 8.57516 13.245 8.54953 13.1814 8.54953Z"
		fill="#90A4AE"/>
	<path
		d="M13.1814 11.282H10.7729C10.7091 11.282 10.6478 11.3078 10.6026 11.3537C10.5575 11.3996 10.5321 11.4619 10.5321 11.5268V12.0385C10.5321 12.1035 10.5575 12.1658 10.6026 12.2117C10.6478 12.2576 10.7091 12.2834 10.7729 12.2834H13.1814C13.2453 12.2834 13.3065 12.2576 13.3517 12.2117C13.3968 12.1658 13.4222 12.1035 13.4222 12.0385V11.5256C13.4219 11.4609 13.3964 11.3989 13.3513 11.3533C13.3061 11.3076 13.245 11.282 13.1814 11.282Z"
		fill="#90A4AE"/>
	<path
		d="M9.87949 8.14063L9.60373 7.86028C9.56024 7.81464 9.501 7.78798 9.43853 7.78593C9.37606 7.78387 9.31526 7.80658 9.26895 7.84926L8.12856 8.87393L7.59991 8.4528C7.55323 8.41444 7.49414 8.39518 7.43422 8.39881C7.37429 8.40243 7.31786 8.42867 7.27598 8.47239L6.99781 8.75273C6.95345 8.79667 6.92745 8.8563 6.92521 8.91922C6.92296 8.98214 6.94465 9.04352 6.98576 9.09061L7.94914 10.2255C7.97174 10.2515 7.99953 10.2724 8.03068 10.2867C8.06182 10.301 8.0956 10.3084 8.12977 10.3084C8.16394 10.3084 8.19772 10.301 8.22886 10.2867C8.26 10.2724 8.2878 10.2515 8.3104 10.2255L9.88792 8.4883C9.90995 8.46498 9.92722 8.43745 9.93873 8.40731C9.95024 8.37717 9.95576 8.345 9.95498 8.31268C9.95419 8.28035 9.94712 8.24851 9.93416 8.21898C9.92121 8.18945 9.90263 8.16282 9.87949 8.14063Z"
		fill="#81C784"/>
	<path
		d="M9.60493 10.5927C9.56144 10.5471 9.50221 10.5204 9.43974 10.5184C9.37727 10.5163 9.31646 10.539 9.27016 10.5817L8.12977 11.6064L7.59991 11.1816C7.55323 11.1432 7.49414 11.124 7.43422 11.1276C7.37429 11.1312 7.31786 11.1575 7.27598 11.2012L6.99781 11.4852C6.95345 11.5291 6.92745 11.5888 6.92521 11.6517C6.92296 11.7146 6.94465 11.776 6.98576 11.8231L7.94914 12.9579C7.97174 12.984 7.99953 13.0048 8.03068 13.0191C8.06182 13.0334 8.0956 13.0408 8.12977 13.0408C8.16394 13.0408 8.19772 13.0334 8.22886 13.0191C8.26 13.0048 8.2878 12.984 8.3104 12.9579L9.88792 11.2159C9.9311 11.1691 9.95453 11.1071 9.95318 11.043C9.95183 10.9789 9.9258 10.9179 9.8807 10.8731L9.60493 10.5927Z"
		fill="#81C784"/>
</svg>
