<svg fill="none" height="64" viewBox="0 0 64 64" width="64" xmlns="http://www.w3.org/2000/svg">
	<path
		d="M29 7C29 6.44772 29.4477 6 30 6H34C34.5523 6 35 6.44772 35 7V28C35 28.5523 34.5523 29 34 29H30C29.4477 29 29 28.5523 29 28V7Z"
		fill="#64B5F6"/>
	<path
		d="M29 36C29 35.4477 29.4477 35 30 35H34C34.5523 35 35 35.4477 35 36V57C35 57.5523 34.5523 58 34 58H30C29.4477 58 29 57.5523 29 57V36Z"
		fill="#64B5F6"/>
	<path
		d="M18 15C18 14.4477 18.4477 14 19 14H22C22.5523 14 23 14.4477 23 15V50C23 50.5523 22.5523 51 22 51H19C18.4477 51 18 50.5523 18 50V15Z"
		fill="#64B5F6"/>
	<path
		d="M41 15C41 14.4477 41.4477 14 42 14H45C45.5523 14 46 14.4477 46 15V50C46 50.5523 45.5523 51 45 51H42C41.4477 51 41 50.5523 41 50V15Z"
		fill="#64B5F6"/>
	<path
		d="M8 22C8 21.4477 8.44772 21 9 21H12C12.5523 21 13 21.4477 13 22V43C13 43.5523 12.5523 44 12 44H9C8.44772 44 8 43.5523 8 43V22Z"
		fill="#64B5F6"/>
	<path
		d="M51 22C51 21.4477 51.4477 21 52 21H55C55.5523 21 56 21.4477 56 22V43C56 43.5523 55.5523 44 55 44H52C51.4477 44 51 43.5523 51 43V22Z"
		fill="#64B5F6"/>
</svg>
